<?xml version="1.0" encoding="UTF-8"?>
<svg id="Capa_1" xmlns="http://www.w3.org/2000/svg" version="1.1" viewBox="0 0 1000 549">
  <!-- Generator: Adobe Illustrator 29.7.1, SVG Export Plug-In . SVG Version: 2.1.1 Build 8)  -->
  <path d="M132,224l-50.87-89.36,85.47-50.55,52.41,89.91,52.52-90.02,86.97,49.65,86.01-49.43,53.48,89.8,51.49-89.89,86.2,49.74,87.3-49.84,51.03,89.99,52.52-90.02,87.45,50.52-51.98,89.5h100v101h-100l51.97,89.51-86.48,50.3-53.48-89.8-51.03,90-87.32-49.84-86.64,49.84-51.03-90-53.47,89.94-86.19-49.76-86.81,49.84-52.02-90.01-51.51,89.99-86.08-49.45-.74-1.86,50.84-88.69H32v-101h100ZM410,224l-51.01-89-51.99,89h103ZM585,224h102l-50.51-88.01-51.49,88.01ZM410,325h-103l51.99,89,51.01-89ZM687,325h-102l50.51,88.01,51.49-88.01Z"/>
</svg>